HIERARCHY
ROOT Hips
{
	OFFSET	0.000000	0.000000	0.000000
	CHANNELS 6 Xposition Yposition Zposition Zrotation Xrotation Yrotation
	JOINT LeftUpLeg
	{
		OFFSET	12.830505	-7.049846	-1.643436
		CHANNELS 3 Zrotation Xrotation Yrotation
		JOINT LeftLeg
		{
			OFFSET	0.620834	-39.957502	-1.919341
			CHANNELS 3 Zrotation Xrotation Yrotation
			JOINT LeftFoot
			{
				OFFSET	-0.413890	-44.704761	-3.870325
				CHANNELS 3 Zrotation Xrotation Yrotation
				JOINT LeftFootHeel
				{
					OFFSET	0.164738	-8.918194	-6.555130
					CHANNELS 3 Zrotation Xrotation Yrotation
					End Site
					{
						OFFSET	-0.604053	0.000000	21.044330
					}
				}
			}
		}
	}
	JOINT RightUpLeg
	{
		OFFSET	-12.830505	-7.049846	-1.643436
		CHANNELS 3 Zrotation Xrotation Yrotation
		JOINT RightLeg
		{
			OFFSET	-0.620834	-39.957502	-1.919341
			CHANNELS 3 Zrotation Xrotation Yrotation
			JOINT RightFoot
			{
				OFFSET	0.413890	-44.704761	-3.870325
				CHANNELS 3 Zrotation Xrotation Yrotation
				JOINT RightFootHeel
				{
					OFFSET	-0.164738	-8.918194	-6.555130
					CHANNELS 3 Zrotation Xrotation Yrotation
					End Site
					{
						OFFSET	0.604053	0.000000	21.044330
					}
				}
			}
		}
	}
	JOINT Spine
	{
		OFFSET	0.000000	12.498171	1.820647
		CHANNELS 3 Zrotation Xrotation Yrotation
		JOINT Spine1
		{
			OFFSET	0.000000	7.620000	0.000000
			CHANNELS 3 Zrotation Xrotation Yrotation
			JOINT LeftShoulder
			{
				OFFSET	9.167800	29.136339	-5.551221
				CHANNELS 3 Zrotation Xrotation Yrotation
				JOINT LeftArm
				{
					OFFSET	12.133453	-3.880866	1.461963
					CHANNELS 3 Zrotation Xrotation Yrotation
					JOINT LeftForeArm
					{
						OFFSET	2.507115	-31.664910	-1.069404
						CHANNELS 3 Zrotation Xrotation Yrotation
						JOINT LeftHand
						{
							OFFSET	4.116172	-24.512624	5.009439
							CHANNELS 3 Zrotation Xrotation Yrotation
							End Site
							{
								OFFSET	-0.213136	-10.931856	2.182134
							}
						}
					}
				}
			}
			JOINT RightShoulder
			{
				OFFSET	-9.167800	29.136339	-5.551221
				CHANNELS 3 Zrotation Xrotation Yrotation
				JOINT RightArm
				{
					OFFSET	-12.133453	-3.880866	1.461963
					CHANNELS 3 Zrotation Xrotation Yrotation
					JOINT RightForeArm
					{
						OFFSET	-2.507115	-31.664910	-1.069404
						CHANNELS 3 Zrotation Xrotation Yrotation
						JOINT RightHand
						{
							OFFSET	-4.116172	-24.512624	5.009439
							CHANNELS 3 Zrotation Xrotation Yrotation
							End Site
							{
								OFFSET	0.213136	-10.931856	2.182134
							}
						}
					}
				}
			}
			JOINT Neck
			{
				OFFSET	0.000000	32.926275	-3.635654
				CHANNELS 3 Zrotation Xrotation Yrotation
				JOINT Head
				{
					OFFSET	0.000000	12.481178	4.646143
					CHANNELS 3 Zrotation Xrotation Yrotation
					End Site
					{
						OFFSET	0.000000	17.715205	-2.222063
					}
				}
			}
		}
	}
}
MOTION
Frames:     16
Frame Time: 0.016667
-1.181658	98.377453	7.201194	8.982163	-0.136499	-63.821239	9.544846	-24.343086	19.642378	-2.476449	40.766727	10.520351	-7.924072	-18.431076	7.002409	0.	0.	0.	-24.031231	-29.520962	-13.985574	3.216398	34.627121	7.592866	7.848050	-7.844181	18.581850	0.	0.	0.	0.000000	0.000001	0.000001	9.613678	14.688106	-8.488012	8.364586	-15.560836	1.170882	44.714993	-17.533211	25.564308	-38.211441	-75.356415	-45.350323	-20.633833	-6.346560	6.591420	-5.381373	-4.239350	-7.360988	-9.542976	-19.223192	11.613516	88.883469	-56.067356	84.392830	-3.355770	-11.118589	13.749668	-5.085963	3.737975	10.252020	-21.496675	-10.585869	32.733688	
-1.463668	98.561560	7.440937	9.046704	-0.124087	-64.118187	9.256806	-23.879749	19.114584	-2.819315	40.253967	11.053333	-7.873769	-18.473717	7.321303	0.	0.	0.	-23.774893	-29.013035	-14.094039	2.820289	33.719959	8.367017	7.934388	-7.697312	18.428867	0.	0.	0.	-0.000000	-0.000000	0.000001	9.740769	14.464449	-9.365732	8.296371	-15.241014	2.798842	38.181915	-11.832949	23.888905	92.308823	-102.864998	84.427711	-20.353918	-5.324528	6.281255	-4.489275	-3.678310	-6.941366	-11.473205	-16.908772	9.120952	92.573357	-54.346523	88.403519	-4.213198	-10.608680	13.128989	-4.788903	2.928120	11.038152	-22.023418	-10.626811	33.272648	
-1.629722	98.779260	7.864476	9.294935	0.018984	-64.861015	9.161100	-23.589960	18.602301	-3.634712	39.786148	12.811291	-7.965912	-18.325079	7.082609	0.	0.	0.	-23.280607	-28.698168	-12.951728	2.792632	32.190933	8.070154	8.296614	-7.171560	18.360977	0.	0.	0.	-0.000000	-0.000000	0.000001	9.571482	14.001294	-9.338577	8.063058	-13.326841	4.626408	29.473360	-3.623838	22.803877	55.023754	-113.848602	47.606121	-20.783222	-3.626704	5.634639	-3.180558	-1.871710	-6.697972	-15.128675	-13.234858	4.687946	-84.142036	-124.783844	-88.061142	-2.815490	-11.641139	12.467360	-3.964038	4.975834	14.070164	-24.102032	-11.623964	30.378725	
-1.759004	98.856048	8.098597	9.564072	0.200070	-65.124611	9.095886	-23.846239	18.201775	-4.070730	39.907894	13.636782	-7.956691	-18.325672	7.059562	0.	0.	0.	-23.099594	-28.661509	-12.535097	2.758160	31.498241	7.455029	8.567761	-6.900048	18.787106	0.	0.	0.	-0.000000	-0.000001	-0.000001	9.361138	13.373902	-8.819089	7.737444	-10.997171	5.114951	24.272633	1.053818	23.111929	49.549038	-122.137871	43.605633	-21.265066	-2.290512	4.625572	-2.684406	-0.123713	-7.031723	-17.421953	-10.566313	1.459893	-80.453133	-125.153015	-84.742668	-2.859905	-11.513368	12.397351	-3.272253	5.202677	14.334259	-24.542433	-11.814266	30.234146	
-1.870715	98.819199	8.321264	9.850827	0.412316	-65.130508	8.914975	-24.377867	17.611742	-4.339422	40.312000	14.177186	-7.938365	-18.432108	7.144362	0.	0.	0.	-23.142326	-28.775406	-12.516900	2.758680	31.307657	6.952377	8.787830	-6.911183	19.186375	0.	0.	0.	0.000000	-0.000000	0.000001	9.052650	13.070049	-8.354486	7.215145	-8.880524	5.623263	19.689922	4.918833	23.658871	48.873058	-128.973068	45.294373	-22.036409	-1.114786	3.730556	-2.217937	1.158303	-7.327190	-19.692759	-7.805641	-1.750543	-77.179749	-125.613586	-82.303894	-2.986066	-11.168668	12.351696	-3.132182	5.312032	14.210653	-24.116568	-12.358971	30.517637	
-1.899453	98.612506	8.578894	9.943905	0.733318	-64.673134	8.767701	-24.939270	16.842932	-4.408179	40.963009	14.393608	-7.964211	-18.722040	7.107586	0.	0.	0.	-23.454054	-28.870083	-13.326013	2.810363	31.810139	6.980536	8.828827	-7.323579	19.376539	0.	0.	0.	-0.000001	-0.000001	-0.000001	8.752934	13.147616	-8.232378	6.648073	-6.957659	5.885391	15.449741	7.904721	24.000099	49.837341	-133.991135	49.191780	-22.639647	0.222433	2.790720	-1.819149	1.651193	-7.593102	-21.622242	-4.488658	-4.727014	-74.132820	-126.558746	-79.983322	-3.733512	-10.719309	11.928302	-2.745313	4.603803	13.860497	-23.671305	-12.186980	31.165306	
-2.474641	98.451731	8.761074	9.943905	0.733318	-64.673134	8.784484	-25.296947	17.113066	-4.330840	41.887245	14.195119	-7.986104	-19.175055	6.976075	0.	0.	0.	-23.454054	-28.870083	-13.326013	2.755584	32.621254	6.846418	8.740559	-8.149115	19.637043	0.	0.	0.	-0.000001	-0.000001	-0.000001	7.819625	13.547545	-7.157421	5.987693	-5.213421	5.841493	11.587051	9.964020	22.623493	51.422642	-135.810669	52.836857	-22.830141	1.172540	1.806226	-1.692969	1.823933	-8.189970	-23.024940	-1.098962	-7.408208	-71.200897	-128.294708	-78.181915	-4.795960	-10.024737	11.722404	-2.628324	3.817367	13.775587	-23.301065	-12.021562	30.525988	
-2.065928	97.730748	9.027713	9.589849	0.995660	-63.523438	8.953587	-25.846542	16.722551	-4.145890	43.224403	13.568124	-7.975578	-19.766933	6.784697	0.	0.	0.	-24.655233	-29.398405	-14.871436	3.349662	35.146824	6.325052	8.758809	-9.243967	20.208385	0.	0.	0.	-0.000001	-0.000000	-0.000002	7.414717	14.105112	-6.591232	5.221015	-3.729125	5.322213	8.107282	11.450415	19.601149	51.834030	-135.106415	54.017994	-22.519285	1.583116	1.337142	-1.810437	1.591336	-9.211595	-24.075298	1.821139	-8.989576	-68.454369	-129.957016	-76.722321	-5.876524	-9.145515	11.743058	-3.107259	2.696347	13.929625	-22.497070	-11.855508	28.863567	
-2.130185	97.176238	9.096968	8.994199	1.225165	-62.355289	9.311035	-26.422426	16.730045	-3.781739	44.975842	12.505825	-7.802470	-20.560371	6.664325	0.	0.	0.	-24.863779	-29.342705	-15.089842	3.814522	37.213207	5.319591	8.757703	-10.522552	20.328707	0.	0.	0.	-0.000000	0.000000	-0.000001	6.768043	15.282517	-6.236288	4.612559	-3.052195	5.359908	5.650908	12.448773	17.177521	53.247631	-134.122437	56.090401	-21.510799	1.622024	0.734342	-2.028824	0.872348	-9.679719	-24.396097	3.607455	-9.762225	-65.839569	-131.550659	-74.930901	-7.173156	-7.801591	12.328425	-2.600942	1.711325	14.614239	-22.752790	-11.823299	27.135996	
-2.162799	96.538515	9.261771	8.145551	1.530249	-60.803848	9.871384	-27.045467	16.731403	-3.216129	47.017803	11.147717	-7.662271	-21.490616	6.370117	0.	0.	0.	-25.036982	-28.876411	-15.542434	4.428084	39.272552	5.233541	8.580091	-12.047818	19.418047	0.	0.	0.	-0.000000	0.000000	-0.000001	5.946729	16.374302	-6.411563	4.319417	-2.703250	6.097056	3.906002	13.407603	15.347992	55.334602	-133.745865	58.553211	-20.416775	1.615656	0.025425	-2.339697	0.221922	-9.699532	-23.904408	4.079415	-9.664742	-62.806938	-133.287598	-72.584358	-8.766052	-6.509063	14.158727	-2.030235	1.500039	15.611786	-23.328812	-12.385825	25.263523	
-2.148432	95.868488	9.329220	7.057817	1.953737	-58.872967	10.489141	-27.706200	16.497662	-2.249360	49.062878	9.617956	-7.664329	-22.427998	5.806034	0.	0.	0.	-24.869076	-28.125191	-16.153936	4.868853	41.252689	5.300550	8.423626	-13.606558	18.305489	0.	0.	0.	0.000000	0.000000	0.000001	5.288668	16.914621	-6.393568	4.265987	-2.369105	6.483826	2.977226	14.093014	14.443067	58.330936	-134.447159	62.323864	-19.299627	1.796436	-0.820916	-2.755749	-0.064783	-10.032949	-23.180319	3.065894	-8.745440	-59.725067	-135.043655	-69.796165	-10.216854	-5.969896	15.627601	-1.514050	2.218918	16.386709	-23.352869	-12.803638	23.305399	
-2.134681	95.534342	9.285970	6.421522	2.168890	-57.769924	10.810186	-27.943665	16.287483	-1.691860	49.957951	8.717913	-7.663661	-22.893238	5.530379	0.	0.	0.	-24.617769	-27.657814	-16.304823	5.117882	42.212925	5.024311	8.358906	-14.402625	17.813406	0.	0.	0.	-0.000001	-0.000001	0.000002	5.046015	17.067202	-6.324957	4.400649	-2.180876	6.531562	2.829726	14.170121	14.086889	59.654984	-135.178711	64.356575	-18.711143	1.995193	-1.341061	-2.999469	-0.108590	-10.317670	-22.848848	1.882697	-8.067238	-58.334667	-135.923874	-68.703209	-10.849175	-5.775171	16.370844	-1.435119	2.634401	16.739838	-22.877733	-12.795178	22.432894	
-2.191639	94.889158	9.408306	5.150856	2.573864	-55.309044	11.371912	-28.270195	15.880236	-0.364487	51.312710	6.259707	-7.516408	-23.759239	5.190096	0.	0.	0.	-24.288782	-26.253962	-17.521505	5.131438	43.808041	5.285115	8.302508	-16.032856	16.924389	0.	0.	0.	-0.000000	0.000000	0.000000	4.688123	17.084827	-6.262836	4.712949	-1.668707	6.528263	3.335811	13.573775	13.104686	61.711895	-136.951950	67.735367	-17.471640	2.355670	-2.286465	-3.425077	0.006338	-10.760464	-22.395857	-1.887041	-6.642962	-55.606987	-137.497467	-67.497719	-11.871005	-5.371391	18.482714	-2.809592	3.766698	19.854319	-21.286327	-12.463399	18.340389	
-2.225012	94.375876	9.063772	3.966907	2.954761	-52.585323	11.794775	-28.592749	15.361953	1.163576	52.140816	3.415774	-7.321601	-24.312397	4.899471	0.	0.	0.	-23.197756	-25.130079	-17.236992	5.524895	45.142399	3.717799	8.375094	-17.587999	15.958029	0.	0.	0.	-0.000000	0.000001	-0.000002	4.279603	16.819336	-6.167366	5.067699	-1.202532	6.473151	4.494225	12.148500	10.980587	62.775040	-138.157837	69.563042	-16.638834	2.492050	-3.059157	-3.698094	0.086660	-11.086187	-21.908352	-7.262450	-5.433655	-53.485973	-138.204132	-65.730232	-12.410551	-4.792472	19.728851	-1.897798	5.048391	19.758131	-21.231503	-12.682100	17.433302	
-2.441567	94.273731	8.797375	3.413560	3.138412	-51.148308	12.562740	-28.914101	16.680489	3.239124	52.615536	-0.216256	-7.239442	-24.437105	4.689831	0.	0.	0.	-22.185541	-24.364979	-16.571962	5.693627	45.331600	2.514770	8.429062	-18.373690	15.338300	0.	0.	0.	-0.000001	-0.000000	-0.000000	4.006942	16.601868	-6.057556	5.254251	-1.047646	6.409117	5.119944	11.300391	9.559371	63.077850	-138.526031	70.012146	-16.450769	2.452642	-3.154832	-3.832419	0.115454	-11.228564	-21.478027	-10.458157	-4.968283	-51.066322	-141.807724	-60.010536	-15.253643	-0.806477	17.310556	-3.970490	5.428038	23.262495	-19.204285	-12.077526	13.251677	
-2.255126	93.773054	8.779759	1.545941	3.720692	-45.060860	12.438835	-29.445560	14.242943	5.227145	52.348331	-3.686342	-7.033485	-23.998198	3.163792	0.	0.	0.	-20.851856	-21.252758	-17.925713	6.148870	46.009258	1.943997	8.264752	-20.480513	11.949999	0.	0.	0.	0.000000	-0.000001	-0.000002	2.377000	15.032919	-3.919770	6.045472	-0.705160	4.918991	6.998907	7.024240	2.211618	64.427422	-138.818253	71.711281	-16.181738	1.682686	-2.043930	-4.475208	-0.412535	-11.911061	-19.467844	-23.725100	-5.078404	-55.234306	-137.701660	-62.772835	-14.999666	-4.447322	19.511475	-5.135765	6.553382	23.912397	-12.968052	-10.050526	6.405313	
